<svg width="24" height="24" viewBox="0 0 24 24" fill="none" xmlns="http://www.w3.org/2000/svg">
<path d="M19.778 12C19.778 9.93715 18.9585 7.95878 17.4999 6.50012C16.0412 5.04147 14.0629 4.222 12 4.222C9.93715 4.222 7.95878 5.04147 6.50012 6.50012C5.04147 7.95878 4.222 9.93715 4.222 12C4.222 14.0629 5.04147 16.0412 6.50012 17.4999C7.95878 18.9585 9.93715 19.778 12 19.778C14.0629 19.778 16.0412 18.9585 17.4999 17.4999C18.9585 16.0412 19.778 14.0629 19.778 12ZM14.548 9.548C14.6511 9.44491 14.7735 9.36314 14.9082 9.30735C15.0429 9.25156 15.1872 9.22284 15.333 9.22284C15.4788 9.22284 15.6231 9.25156 15.7578 9.30735C15.8925 9.36314 16.0149 9.44491 16.118 9.548C16.2211 9.65109 16.3029 9.77347 16.3587 9.90816C16.4144 10.0429 16.4432 10.1872 16.4432 10.333C16.4432 10.4788 16.4144 10.6231 16.3587 10.7578C16.3029 10.8925 16.2211 11.0149 16.118 11.118L12.786 14.452C12.6829 14.5554 12.5604 14.6375 12.4255 14.6934C12.2906 14.7494 12.146 14.7782 12 14.7782C11.854 14.7782 11.7094 14.7494 11.5745 14.6934C11.4396 14.6375 11.3171 14.5554 11.214 14.452L7.881 11.12L7.805 11.035C7.62964 10.822 7.5399 10.5513 7.55327 10.2757C7.56664 10.0001 7.68217 9.73941 7.87733 9.54437C8.07248 9.34934 8.33329 9.23398 8.60888 9.22078C8.88447 9.20759 9.1551 9.2975 9.368 9.473L9.452 9.549L12 12.095L14.548 9.548ZM22 12C22 17.523 17.523 22 12 22C6.477 22 2 17.523 2 12C2 6.477 6.477 2 12 2C17.523 2 22 6.477 22 12Z" fill="black"/>
</svg>
